<svg width="46" height="47" viewBox="0 0 46 47" fill="none" xmlns="http://www.w3.org/2000/svg">
<path fill-rule="evenodd" clip-rule="evenodd" d="M0.5 23V14C0.5 7.63604 0.5 4.45406 2.47703 2.47703C4.45406 0.5 7.63604 0.5 14 0.5H32C38.364 0.5 41.5459 0.5 43.523 2.47703C45.5 4.45406 45.5 7.63604 45.5 14V23C45.5 29.364 45.5 32.5459 43.523 34.523C42.0686 35.9773 39.9622 36.3618 36.4167 36.4635C36.4084 34.8079 35.8333 33.1546 34.6913 31.8145C34.6267 31.7387 34.5876 31.6445 34.5797 31.5452C34.2976 28.0094 31.4898 25.2016 27.954 24.9195C27.8547 24.9115 27.7605 24.8725 27.6847 24.8079C24.985 22.5072 21.0142 22.5072 18.3145 24.8079C18.2387 24.8725 18.1445 24.9115 18.0452 24.9195C14.5094 25.2016 11.7016 28.0094 11.4195 31.5452C11.4115 31.6445 11.3725 31.7387 11.3079 31.8145C10.1659 33.1546 9.59074 34.8079 9.58249 36.4634C6.03748 36.3618 3.93128 35.9772 2.47703 34.523C0.5 32.5459 0.5 29.364 0.5 23ZM14.5625 9.5C14.5625 8.56802 15.318 7.8125 16.25 7.8125H29.75C30.682 7.8125 31.4375 8.56802 31.4375 9.5C31.4375 10.432 30.682 11.1875 29.75 11.1875H16.25C15.318 11.1875 14.5625 10.432 14.5625 9.5ZM11.75 15.6875C10.818 15.6875 10.0625 16.443 10.0625 17.375C10.0625 18.307 10.818 19.0625 11.75 19.0625H34.25C35.182 19.0625 35.9375 18.307 35.9375 17.375C35.9375 16.443 35.182 15.6875 34.25 15.6875H11.75Z" fill="#094B72"/>
<path fill-rule="evenodd" clip-rule="evenodd" d="M25.4956 27.3767C24.0573 26.151 21.9419 26.151 20.5036 27.3767C19.8872 27.9019 19.1209 28.2193 18.3137 28.2838C16.4299 28.4341 14.9341 29.9299 14.7838 31.8137C14.7193 32.6209 14.4019 33.3872 13.8767 34.0036C12.651 35.4419 12.651 37.5573 13.8767 38.9956C14.4019 39.6119 14.7193 40.3783 14.7838 41.1855C14.9341 43.0692 16.4299 44.5651 18.3137 44.7154C19.1209 44.7798 19.8872 45.0973 20.5036 45.6225C21.9419 46.8482 24.0573 46.8482 25.4956 45.6225C26.1119 45.0973 26.8783 44.7798 27.6855 44.7154C29.5692 44.5651 31.0651 43.0692 31.2154 41.1855C31.2798 40.3783 31.5973 39.6119 32.1225 38.9956C33.3482 37.5573 33.3482 35.4419 32.1225 34.0036C31.5973 33.3872 31.2798 32.6209 31.2154 31.8137C31.0651 29.9299 29.5692 28.4341 27.6855 28.2838C26.8783 28.2193 26.1119 27.9019 25.4956 27.3767ZM27.5264 35.4837C28.2077 34.8478 28.2446 33.7799 27.6087 33.0986C26.9728 32.4173 25.9049 32.3804 25.2236 33.0163L21.5536 36.4417L20.7764 35.7164C20.0951 35.0804 19.0273 35.1173 18.3913 35.7986C17.7554 36.4799 17.7923 37.5478 18.4736 38.1837L20.4022 39.9837C21.0505 40.5888 22.0566 40.5888 22.705 39.9837L27.5264 35.4837Z" fill="#094B72"/>
</svg>
