<svg width="24" height="24" viewBox="0 0 24 24" fill="none" xmlns="http://www.w3.org/2000/svg">
    <path fill-rule="evenodd" clip-rule="evenodd" d="M22.2955 6.31065C22.6762 6.47382 22.8526 6.91473 22.6894 7.29545L22 7.00001C22.6894 7.29545 22.6895 7.29527 22.6894 7.29545L22.6887 7.29713L22.6876 7.29961L22.6844 7.30697L22.6738 7.33105C22.6648 7.35118 22.652 7.3794 22.6353 7.41508C22.6021 7.48643 22.5534 7.58776 22.4889 7.71416C22.3601 7.96681 22.1676 8.32069 21.9086 8.73647C21.483 9.41951 20.8725 10.2777 20.062 11.1302L21.0304 12.0985C21.3233 12.3914 21.3233 12.8663 21.0304 13.1592C20.7375 13.4521 20.2626 13.4521 19.9697 13.1592L18.9691 12.1586C18.3094 12.7113 17.5529 13.23 16.6951 13.6562L17.6287 15.091C17.8546 15.4382 17.7563 15.9027 17.4091 16.1286C17.0619 16.3546 16.5973 16.2562 16.3714 15.909L15.2822 14.2352C14.5029 14.4897 13.6591 14.6626 12.75 14.7246V16.5C12.75 16.9142 12.4143 17.25 12 17.25C11.5858 17.25 11.25 16.9142 11.25 16.5V14.7246C10.369 14.6645 9.54922 14.5002 8.78995 14.2584L7.71587 15.9091C7.48997 16.2563 7.02538 16.3546 6.67819 16.1287C6.33101 15.9028 6.23269 15.4382 6.4586 15.091L7.37101 13.6888C6.50663 13.2667 5.74394 12.7502 5.07854 12.1983L4.11756 13.1592C3.82467 13.4521 3.3498 13.4521 3.0569 13.1592C2.76401 12.8664 2.76401 12.3915 3.0569 12.0986L3.98067 11.1748C3.15611 10.3151 2.53537 9.44656 2.10289 8.75468C1.83997 8.33404 1.64472 7.97566 1.514 7.7197C1.4486 7.59164 1.39923 7.48895 1.36549 7.41665C1.34862 7.38048 1.33565 7.35189 1.32654 7.33149L1.31574 7.3071L1.3125 7.29966L1.31142 7.29714L1.31101 7.29619C1.31093 7.29602 1.31069 7.29545 2.00005 7.00001L1.31101 7.29619C1.14784 6.91547 1.32388 6.47382 1.70461 6.31065C2.08502 6.14762 2.52551 6.32356 2.689 6.70363C2.68894 6.7035 2.68906 6.70376 2.689 6.70363L2.68996 6.70582L2.69603 6.71953C2.70193 6.73273 2.71152 6.75392 2.72485 6.78249C2.75151 6.83965 2.79308 6.92626 2.84989 7.03748C2.96357 7.2601 3.13774 7.58028 3.37485 7.95961C3.85045 8.72048 4.57169 9.7071 5.55573 10.6216C6.42163 11.4263 7.48271 12.1676 8.75177 12.6558C9.70626 13.023 10.7855 13.25 12 13.25C13.2418 13.25 14.3422 13.0128 15.3125 12.6308C16.5739 12.1343 17.6278 11.3883 18.4868 10.582C19.4563 9.67198 20.1669 8.69517 20.6355 7.94321C20.8691 7.56832 21.0407 7.25228 21.1527 7.03268C21.2086 6.92296 21.2496 6.83758 21.2758 6.78125C21.2889 6.7531 21.2984 6.73224 21.3042 6.71925L21.3102 6.70577L21.3107 6.70457C21.3106 6.70467 21.3107 6.70447 21.3107 6.70457M22.2955 6.31065C21.9149 6.14753 21.474 6.32405 21.3107 6.70457L22.2955 6.31065ZM2.689 6.70363C2.68894 6.7035 2.68906 6.70376 2.689 6.70363V6.70363Z" fill="currentColor"/>
</svg>
