<svg width="19" height="16" viewBox="0 0 19 16" fill="none" xmlns="http://www.w3.org/2000/svg">
    <path fill-rule="evenodd" clip-rule="evenodd" d="M9.49984 4.87492C7.77395 4.87492 6.37484 6.27403 6.37484 7.99992C6.37484 9.72581 7.77395 11.1249 9.49984 11.1249C11.2257 11.1249 12.6248 9.72581 12.6248 7.99992C12.6248 6.27403 11.2257 4.87492 9.49984 4.87492ZM7.62484 7.99992C7.62484 6.96438 8.4643 6.12492 9.49984 6.12492C10.5354 6.12492 11.3748 6.96438 11.3748 7.99992C11.3748 9.03545 10.5354 9.87492 9.49984 9.87492C8.4643 9.87492 7.62484 9.03545 7.62484 7.99992Z" fill="currentColor" />
    <path fill-rule="evenodd" clip-rule="evenodd" d="M9.49984 0.708252C5.73806 0.708252 3.20425 2.96175 1.73364 4.8723L1.70712 4.90675C1.37454 5.3387 1.06822 5.73652 0.86041 6.20692C0.637874 6.71064 0.541504 7.25966 0.541504 7.99992C0.541504 8.74018 0.637874 9.28919 0.86041 9.79292C1.06822 10.2633 1.37454 10.6611 1.70713 11.0931L1.73364 11.1275C3.20425 13.0381 5.73806 15.2916 9.49984 15.2916C13.2616 15.2916 15.7954 13.0381 17.266 11.1275L17.2925 11.0931C17.6251 10.6612 17.9314 10.2633 18.1393 9.79292C18.3618 9.28919 18.4582 8.74018 18.4582 7.99992C18.4582 7.25966 18.3618 6.71064 18.1393 6.20692C17.9314 5.73651 17.6251 5.33868 17.2925 4.90673L17.266 4.8723C15.7954 2.96175 13.2616 0.708252 9.49984 0.708252ZM2.72419 5.63475C4.08203 3.87068 6.2918 1.95825 9.49984 1.95825C12.7079 1.95825 14.9176 3.87068 16.2755 5.63475C16.641 6.10958 16.8551 6.3933 16.9959 6.71204C17.1275 7.00993 17.2082 7.37403 17.2082 7.99992C17.2082 8.62581 17.1275 8.98991 16.9959 9.2878C16.8551 9.60654 16.641 9.89026 16.2755 10.3651C14.9176 12.1292 12.7079 14.0416 9.49984 14.0416C6.2918 14.0416 4.08204 12.1292 2.72419 10.3651C2.3587 9.89026 2.14462 9.60654 2.0038 9.2878C1.8722 8.9899 1.7915 8.62581 1.7915 7.99992C1.7915 7.37403 1.8722 7.00993 2.0038 6.71204C2.14462 6.3933 2.3587 6.10958 2.72419 5.63475Z" fill="currentColor" />
</svg>
