<svg width="20" height="20" viewBox="0 0 20 20" fill="none" xmlns="http://www.w3.org/2000/svg">
    <path d="M12.4548 1.04175C11.3151 1.04173 10.3965 1.04172 9.67405 1.13885C8.92396 1.2397 8.29239 1.45544 7.7908 1.95704C7.35335 2.39448 7.13232 2.93204 7.01629 3.56371C6.90355 4.17751 6.88198 4.92866 6.87696 5.82994C6.87504 6.17511 7.1533 6.45648 7.49847 6.45841C7.84365 6.46033 8.12502 6.18207 8.12694 5.83689C8.13202 4.92565 8.15568 4.27974 8.24572 3.78954C8.33249 3.3172 8.4718 3.0438 8.67468 2.84092C8.90532 2.61029 9.22913 2.45992 9.84061 2.37771C10.4701 2.29308 11.3043 2.29175 12.5005 2.29175H13.3338C14.53 2.29175 15.3643 2.29308 15.9937 2.37771C16.6052 2.45992 16.929 2.61029 17.1597 2.84092C17.3903 3.07156 17.5407 3.39537 17.6229 4.00685C17.7075 4.63631 17.7088 5.47057 17.7088 6.66675V13.3334C17.7088 14.5296 17.7075 15.3639 17.6229 15.9933C17.5407 16.6048 17.3903 16.9286 17.1597 17.1592C16.929 17.3899 16.6052 17.5402 15.9937 17.6225C15.3643 17.7071 14.53 17.7084 13.3338 17.7084H12.5005C11.3043 17.7084 10.4701 17.7071 9.84061 17.6225C9.22913 17.5402 8.90532 17.3899 8.67468 17.1592C8.4718 16.9564 8.33249 16.683 8.24572 16.2106C8.15568 15.7204 8.13202 15.0745 8.12694 14.1633C8.12502 13.8181 7.84365 13.5398 7.49847 13.5418C7.1533 13.5437 6.87504 13.8251 6.87696 14.1702C6.88198 15.0715 6.90355 15.8227 7.01629 16.4365C7.13232 17.0681 7.35335 17.6057 7.7908 18.0431C8.29239 18.5447 8.92396 18.7605 9.67405 18.8613C10.3965 18.9584 11.3151 18.9584 12.4548 18.9584H13.3796C14.5192 18.9584 15.4378 18.9584 16.1603 18.8613C16.9104 18.7605 17.542 18.5447 18.0435 18.0431C18.5451 17.5415 18.7609 16.91 18.8617 16.1599C18.9589 15.4374 18.9589 14.5188 18.9588 13.3791V6.62103C18.9589 5.48136 18.9589 4.56276 18.8617 3.84029C18.7609 3.0902 18.5451 2.45864 18.0435 1.95704C17.542 1.45544 16.9104 1.2397 16.1603 1.13885C15.4378 1.04172 14.5192 1.04173 13.3796 1.04175H12.4548Z" fill="currentColor" />
    <path d="M12.5003 9.37508C12.8455 9.37508 13.1253 9.65491 13.1253 10.0001C13.1253 10.3453 12.8455 10.6251 12.5003 10.6251H3.35653L4.9904 12.0255C5.25248 12.2502 5.28283 12.6447 5.05819 12.9068C4.83356 13.1689 4.43899 13.1993 4.17691 12.9746L1.26025 10.4746C1.12172 10.3559 1.04199 10.1825 1.04199 10.0001C1.04199 9.81763 1.12172 9.64429 1.26025 9.52555L4.17691 7.02555C4.43899 6.80091 4.83356 6.83126 5.05819 7.09334C5.28283 7.35542 5.25248 7.74998 4.9904 7.97462L3.35653 9.37508H12.5003Z" fill="currentColor" />
</svg>
