<svg width="20" height="21" viewBox="0 0 20 21" fill="none" xmlns="http://www.w3.org/2000/svg">
    <path fill-rule="evenodd" clip-rule="evenodd" d="M9.95699 1.5415H10.0437C10.7924 1.54148 11.4167 1.54146 11.9124 1.6081C12.4356 1.67844 12.9079 1.83316 13.2874 2.21272C13.667 2.59228 13.8217 3.06461 13.8921 3.58777C13.9413 3.95411 13.9542 4.39074 13.9575 4.89594C14.4979 4.91329 14.9797 4.94489 15.4078 5.00245C16.3849 5.13381 17.1757 5.41057 17.7993 6.03421C18.4229 6.65784 18.6997 7.44863 18.831 8.42565C18.9587 9.375 18.9587 10.588 18.9587 12.1195V12.2135C18.9587 13.745 18.9587 14.958 18.831 15.9074C18.6997 16.8844 18.4229 17.6752 17.7993 18.2988C17.1757 18.9224 16.3849 19.1992 15.4078 19.3306C14.4585 19.4582 13.2455 19.4582 11.714 19.4582H8.28665C6.75518 19.4582 5.54215 19.4582 4.59281 19.3306C3.61579 19.1992 2.825 18.9224 2.20136 18.2988C1.57773 17.6752 1.30096 16.8844 1.1696 15.9074C1.04197 14.958 1.04198 13.745 1.04199 12.2135V12.1195C1.04198 10.588 1.04197 9.375 1.1696 8.42565C1.30096 7.44863 1.57773 6.65784 2.20136 6.03421C2.825 5.41057 3.61579 5.13381 4.59281 5.00245C5.02095 4.94489 5.50273 4.91329 6.04316 4.89594C6.04649 4.39074 6.05933 3.95411 6.10859 3.58777C6.17892 3.06461 6.33365 2.59228 6.71321 2.21272C7.09276 1.83316 7.5651 1.67844 8.08826 1.6081C8.58391 1.54146 9.20826 1.54148 9.95699 1.5415ZM7.29349 4.87632C7.6086 4.87483 7.93944 4.87484 8.28664 4.87484H11.714C12.0612 4.87484 12.3921 4.87483 12.7072 4.87632C12.7036 4.40105 12.692 4.04255 12.6532 3.75433C12.6015 3.36978 12.5122 3.2052 12.4036 3.0966C12.295 2.98801 12.1304 2.89865 11.7458 2.84695C11.3433 2.79283 10.8037 2.79151 10.0003 2.79151C9.19698 2.79151 8.65735 2.79283 8.25482 2.84695C7.87027 2.89865 7.70569 2.98801 7.59709 3.0966C7.48849 3.2052 7.39914 3.36978 7.34744 3.75433C7.30869 4.04255 7.297 4.40105 7.29349 4.87632ZM4.75937 6.2413C3.92096 6.35403 3.43792 6.56542 3.08525 6.91809C2.73257 7.27077 2.52118 7.75381 2.40846 8.59221C2.29332 9.4486 2.29199 10.5775 2.29199 12.1665C2.29199 13.7555 2.29332 14.8844 2.40846 15.7408C2.52118 16.5792 2.73257 17.0622 3.08525 17.4149C3.43792 17.7676 3.92096 17.979 4.75937 18.0917C5.61575 18.2068 6.74464 18.2082 8.33366 18.2082H11.667C13.256 18.2082 14.3849 18.2068 15.2413 18.0917C16.0797 17.979 16.5627 17.7676 16.9154 17.4149C17.2681 17.0622 17.4795 16.5792 17.5922 15.7408C17.7073 14.8844 17.7087 13.7555 17.7087 12.1665C17.7087 10.5775 17.7073 9.4486 17.5922 8.59221C17.4795 7.75381 17.2681 7.27077 16.9154 6.91809C16.5627 6.56542 16.0797 6.35403 15.2413 6.2413C14.3849 6.12617 13.256 6.12484 11.667 6.12484H8.33366C6.74464 6.12484 5.61575 6.12617 4.75937 6.2413Z" fill="currentColor"/>
    <path d="M14.167 7.99984C14.167 8.46008 13.7939 8.83317 13.3337 8.83317C12.8734 8.83317 12.5003 8.46008 12.5003 7.99984C12.5003 7.5396 12.8734 7.16651 13.3337 7.16651C13.7939 7.16651 14.167 7.5396 14.167 7.99984Z" fill="currentColor"/>
    <path d="M7.50033 7.99984C7.50033 8.46008 7.12723 8.83317 6.66699 8.83317C6.20676 8.83317 5.83366 8.46008 5.83366 7.99984C5.83366 7.5396 6.20676 7.16651 6.66699 7.16651C7.12723 7.16651 7.50033 7.5396 7.50033 7.99984Z" fill="currentColor"/>
</svg>
