<svg width="20" height="21" viewBox="0 0 20 21" fill="none" xmlns="http://www.w3.org/2000/svg">
    <path fill-rule="evenodd" clip-rule="evenodd" d="M4.95699 1.5415H15.0437C15.7924 1.54148 16.4167 1.54146 16.9124 1.6081C17.4356 1.67844 17.9079 1.83316 18.2874 2.21272C18.667 2.59228 18.8217 3.06461 18.8921 3.58777C18.9587 4.08343 18.9587 4.70778 18.9587 5.45651V5.54317C18.9587 6.2919 18.9587 6.91625 18.8921 7.41191C18.8217 7.93507 18.667 8.4074 18.2874 8.78696C17.9079 9.16652 17.4356 9.32124 16.9124 9.39158C16.4167 9.45822 15.7924 9.4582 15.0437 9.45817H4.957C4.20826 9.4582 3.58391 9.45822 3.08826 9.39158C2.5651 9.32124 2.09277 9.16652 1.71321 8.78696C1.33365 8.4074 1.17892 7.93507 1.10859 7.41191C1.04195 6.91625 1.04197 6.29191 1.04199 5.54317V5.45651C1.04197 4.70777 1.04195 4.08342 1.10859 3.58777C1.17892 3.06461 1.33365 2.59228 1.71321 2.21272C2.09277 1.83316 2.5651 1.67844 3.08826 1.6081C3.58391 1.54146 4.20826 1.54148 4.95699 1.5415ZM3.25482 2.84695C2.87027 2.89865 2.70569 2.98801 2.59709 3.0966C2.48849 3.2052 2.39914 3.36978 2.34744 3.75433C2.29332 4.15686 2.29199 4.6965 2.29199 5.49984C2.29199 6.30318 2.29332 6.84282 2.34744 7.24535C2.39914 7.6299 2.48849 7.79448 2.59709 7.90308C2.70569 8.01167 2.87027 8.10103 3.25482 8.15273C3.65735 8.20685 4.19698 8.20817 5.00033 8.20817H15.0003C15.8037 8.20817 16.3433 8.20685 16.7458 8.15273C17.1304 8.10103 17.295 8.01167 17.4036 7.90308C17.5122 7.79448 17.6015 7.6299 17.6532 7.24535C17.7073 6.84282 17.7087 6.30318 17.7087 5.49984C17.7087 4.6965 17.7073 4.15686 17.6532 3.75433C17.6015 3.36978 17.5122 3.2052 17.4036 3.0966C17.295 2.98801 17.1304 2.89865 16.7458 2.84695C16.3433 2.79283 15.8037 2.79151 15.0003 2.79151H5.00033C4.19698 2.79151 3.65735 2.79283 3.25482 2.84695ZM5.00033 4.04151C5.34551 4.04151 5.62533 4.32133 5.62533 4.66651V6.33317C5.62533 6.67835 5.34551 6.95817 5.00033 6.95817C4.65515 6.95817 4.37533 6.67835 4.37533 6.33317V4.66651C4.37533 4.32133 4.65515 4.04151 5.00033 4.04151ZM7.50033 4.04151C7.84551 4.04151 8.12533 4.32133 8.12533 4.66651V6.33317C8.12533 6.67835 7.84551 6.95817 7.50033 6.95817C7.15515 6.95817 6.87533 6.67835 6.87533 6.33317V4.66651C6.87533 4.32133 7.15515 4.04151 7.50033 4.04151ZM10.6253 5.49984C10.6253 5.15466 10.9051 4.87484 11.2503 4.87484H15.0003C15.3455 4.87484 15.6253 5.15466 15.6253 5.49984C15.6253 5.84502 15.3455 6.12484 15.0003 6.12484H11.2503C10.9051 6.12484 10.6253 5.84502 10.6253 5.49984ZM4.957 10.7082H15.0437C15.7924 10.7081 16.4167 10.7081 16.9124 10.7748C17.4356 10.8451 17.9079 10.9998 18.2874 11.3794C18.667 11.7589 18.8217 12.2313 18.8921 12.7544C18.9587 13.2501 18.9587 13.8744 18.9587 14.6232V14.7098C18.9587 15.4586 18.9587 16.0829 18.8921 16.5786C18.8217 17.1017 18.667 17.5741 18.2874 17.9536C17.9079 18.3332 17.4356 18.4879 16.9124 18.5582C16.4167 18.6249 15.7924 18.6249 15.0437 18.6248H4.957C4.20826 18.6249 3.58391 18.6249 3.08826 18.5582C2.5651 18.4879 2.09277 18.3332 1.71321 17.9536C1.33365 17.5741 1.17892 17.1017 1.10859 16.5786C1.04195 16.0829 1.04197 15.4586 1.04199 14.7098V14.6232C1.04197 13.8744 1.04195 13.2501 1.10859 12.7544C1.17892 12.2313 1.33365 11.7589 1.71321 11.3794C2.09277 10.9998 2.5651 10.8451 3.08826 10.7748C3.58391 10.7081 4.20826 10.7081 4.957 10.7082ZM3.25482 12.0136C2.87027 12.0653 2.70569 12.1547 2.59709 12.2633C2.48849 12.3719 2.39914 12.5364 2.34744 12.921C2.29332 13.3235 2.29199 13.8632 2.29199 14.6665C2.29199 15.4698 2.29332 16.0095 2.34744 16.412C2.39914 16.7966 2.48849 16.9611 2.59709 17.0697C2.70569 17.1783 2.87027 17.2677 3.25482 17.3194C3.65735 17.3735 4.19698 17.3748 5.00033 17.3748H15.0003C15.8037 17.3748 16.3433 17.3735 16.7458 17.3194C17.1304 17.2677 17.295 17.1783 17.4036 17.0697C17.5122 16.9611 17.6015 16.7966 17.6532 16.412C17.7073 16.0095 17.7087 15.4698 17.7087 14.6665C17.7087 13.8632 17.7073 13.3235 17.6532 12.921C17.6015 12.5364 17.5122 12.3719 17.4036 12.2633C17.295 12.1547 17.1304 12.0653 16.7458 12.0136C16.3433 11.9595 15.8037 11.9582 15.0003 11.9582H5.00033C4.19698 11.9582 3.65735 11.9595 3.25482 12.0136ZM5.00033 13.2082C5.34551 13.2082 5.62533 13.488 5.62533 13.8332V15.4998C5.62533 15.845 5.34551 16.1248 5.00033 16.1248C4.65515 16.1248 4.37533 15.845 4.37533 15.4998V13.8332C4.37533 13.488 4.65515 13.2082 5.00033 13.2082ZM7.50033 13.2082C7.84551 13.2082 8.12533 13.488 8.12533 13.8332V15.4998C8.12533 15.845 7.84551 16.1248 7.50033 16.1248C7.15515 16.1248 6.87533 15.845 6.87533 15.4998V13.8332C6.87533 13.488 7.15515 13.2082 7.50033 13.2082ZM10.6253 14.6665C10.6253 14.3213 10.9051 14.0415 11.2503 14.0415H15.0003C15.3455 14.0415 15.6253 14.3213 15.6253 14.6665C15.6253 15.0117 15.3455 15.2915 15.0003 15.2915H11.2503C10.9051 15.2915 10.6253 15.0117 10.6253 14.6665Z" fill="currentColor"/>
</svg>
