<svg width="20" height="20" viewBox="0 0 20 20" fill="none" xmlns="http://www.w3.org/2000/svg">
    <path fill-rule="evenodd" clip-rule="evenodd" d="M1.87435 10C1.87435 5.51269 5.51204 1.875 9.99935 1.875C14.4867 1.875 18.1243 5.51269 18.1243 10V12.3272C18.1895 12.3042 18.2596 12.2917 18.3327 12.2917C18.6779 12.2917 18.9577 12.5715 18.9577 12.9167V14.5833C18.9577 14.9285 18.6779 15.2083 18.3327 15.2083C18.2571 15.2083 18.1847 15.1949 18.1177 15.1704C18.1131 15.3374 18.1054 15.4912 18.0923 15.6322C18.0587 15.995 17.9861 16.3295 17.8067 16.6427C17.6874 16.8511 17.5373 17.04 17.3611 17.2024C17.0941 17.4485 16.7846 17.5883 16.442 17.6922C16.1181 17.7903 15.716 17.8696 15.2397 17.9636L15.1778 17.9758C14.8526 18.0399 14.5572 18.0982 14.3115 18.1176C14.0469 18.1384 13.7488 18.1239 13.4631 17.9631C13.294 17.8679 13.1462 17.74 13.0272 17.5877C12.8294 17.3348 12.7633 17.046 12.7346 16.7801C12.7076 16.5295 12.7077 16.2203 12.7077 15.8733V11.5097C12.7077 11.2148 12.7076 10.9499 12.7288 10.7323C12.7514 10.5002 12.8033 10.2493 12.9561 10.0169C13.082 9.82538 13.2506 9.66479 13.4503 9.54974C13.6962 9.40802 13.9525 9.37664 14.184 9.37506C14.3979 9.37361 14.6546 9.39894 14.9346 9.42658L14.993 9.43234C15.481 9.48045 15.8916 9.52092 16.2244 9.58683C16.4524 9.632 16.6686 9.69331 16.8712 9.79046C16.7605 6.09044 13.7262 3.125 9.99935 3.125C6.27249 3.125 3.23825 6.09044 3.12748 9.79046C3.33012 9.69331 3.54627 9.632 3.77431 9.58683C4.10706 9.52092 4.51769 9.48045 5.00574 9.43234L5.06413 9.42658C5.34411 9.39894 5.60085 9.37361 5.81473 9.37506C6.04617 9.37664 6.30249 9.40802 6.54841 9.54974C6.74806 9.66479 6.91674 9.82538 7.04263 10.0169C7.19544 10.2493 7.24727 10.5002 7.26987 10.7323C7.29106 10.9499 7.29104 11.2148 7.29102 11.5097V15.8733C7.29104 16.2203 7.29106 16.5295 7.26406 16.7801C7.23541 17.046 7.16927 17.3348 6.97153 17.5877C6.85255 17.74 6.70472 17.8679 6.53557 17.9631C6.24991 18.1239 5.95177 18.1384 5.68725 18.1176C5.44147 18.0982 5.14612 18.0399 4.82088 17.9758L4.75899 17.9636C4.28266 17.8696 3.88055 17.7903 3.55672 17.6922C3.21409 17.5883 2.90464 17.4485 2.6376 17.2024C2.46142 17.04 2.31128 16.8511 2.19196 16.6427C2.01259 16.3295 1.94001 15.995 1.90639 15.6322C1.89332 15.4912 1.88558 15.3374 1.881 15.1704C1.81397 15.1949 1.74156 15.2083 1.66602 15.2083C1.32084 15.2083 1.04102 14.9285 1.04102 14.5833V12.9167C1.04102 12.5715 1.32084 12.2917 1.66602 12.2917C1.73906 12.2917 1.80919 12.3042 1.87435 12.3272V10ZM3.12435 14.3277C3.12435 14.8707 3.12497 15.2354 3.15106 15.5169C3.17618 15.788 3.22109 15.9244 3.2767 16.0216C3.33328 16.1204 3.40363 16.2085 3.4847 16.2832C3.5613 16.3538 3.67446 16.4217 3.91933 16.4959C4.17631 16.5738 4.51662 16.6417 5.0305 16.743C5.39851 16.8156 5.62122 16.8585 5.78547 16.8714C5.87403 16.8784 5.91438 16.8734 5.92786 16.8706C5.94864 16.8581 5.96845 16.841 5.98571 16.8192C5.99085 16.8091 6.00839 16.7656 6.02125 16.6462C6.04016 16.4707 6.04102 16.23 6.04102 15.842V11.5372C6.04102 11.2061 6.04032 11.003 6.02576 10.8534C6.01559 10.749 6.00151 10.7112 5.9977 10.7029C5.97819 10.6734 5.9541 10.6509 5.9285 10.6353C5.91754 10.6323 5.88317 10.6256 5.80622 10.625C5.66634 10.6241 5.47633 10.642 5.15813 10.6734C4.63253 10.7252 4.28303 10.7604 4.01718 10.813C3.76243 10.8635 3.64428 10.9198 3.56488 10.9796C3.44835 11.0674 3.34879 11.1806 3.27374 11.3133C3.22002 11.4083 3.17548 11.5451 3.15062 11.8207C3.12494 12.1054 3.12435 12.4749 3.12435 13.023V14.3277ZM16.8743 13.023C16.8743 12.4749 16.8738 12.1054 16.8481 11.8207C16.8232 11.5451 16.7787 11.4083 16.725 11.3133C16.6499 11.1806 16.5504 11.0674 16.4338 10.9796C16.3544 10.9198 16.2363 10.8635 15.9815 10.813C15.7157 10.7604 15.3662 10.7252 14.8406 10.6734C14.5224 10.642 14.3324 10.6241 14.1925 10.625C14.1155 10.6256 14.0812 10.6323 14.0702 10.6353C14.0446 10.6509 14.0205 10.6734 14.001 10.7029C13.9972 10.7112 13.9831 10.749 13.9729 10.8534C13.9584 11.003 13.9577 11.2061 13.9577 11.5372V15.842C13.9577 16.23 13.9585 16.4707 13.9774 16.6462C13.9903 16.7656 14.0078 16.8091 14.013 16.8192C14.0302 16.841 14.0501 16.8581 14.0708 16.8706C14.0843 16.8734 14.1247 16.8784 14.2132 16.8714C14.3775 16.8585 14.6002 16.8156 14.9682 16.743C15.4821 16.6417 15.8224 16.5738 16.0794 16.4959C16.3242 16.4217 16.4374 16.3538 16.514 16.2832C16.5951 16.2085 16.6654 16.1204 16.722 16.0216C16.7776 15.9244 16.8225 15.788 16.8476 15.5169C16.8737 15.2354 16.8743 14.8707 16.8743 14.3277V13.023Z" fill="currentColor" />
</svg>
