<svg width="20" height="21" viewBox="0 0 20 21" fill="none" xmlns="http://www.w3.org/2000/svg">
    <path fill-rule="evenodd" clip-rule="evenodd" d="M1.04199 4.6665C1.04199 2.94061 2.4411 1.5415 4.16699 1.5415H15.8337C17.5595 1.5415 18.9587 2.94061 18.9587 4.6665C18.9587 5.68875 18.4678 6.59636 17.709 7.16651C18.4678 7.73665 18.9587 8.64425 18.9587 9.6665C18.9587 11.3924 17.5595 12.7915 15.8337 12.7915H10.6253V14.1278C11.3885 14.3436 11.9899 14.945 12.2057 15.7082H18.3337C18.6788 15.7082 18.9587 15.988 18.9587 16.3332C18.9587 16.6783 18.6788 16.9582 18.3337 16.9582H12.2057C11.9337 17.92 11.0493 18.6248 10.0003 18.6248C8.95134 18.6248 8.06698 17.92 7.79492 16.9582H1.66699C1.32181 16.9582 1.04199 16.6783 1.04199 16.3332C1.04199 15.988 1.32181 15.7082 1.66699 15.7082H7.79492C8.01078 14.945 8.61213 14.3436 9.37533 14.1278V12.7915H4.16699C2.4411 12.7915 1.04199 11.3924 1.04199 9.6665C1.04199 8.64425 1.53283 7.73665 2.29169 7.1665C1.53283 6.59636 1.04199 5.68875 1.04199 4.6665ZM4.16699 6.5415C3.13146 6.5415 2.29199 5.70204 2.29199 4.6665C2.29199 3.63097 3.13146 2.7915 4.16699 2.7915H15.8337C16.8692 2.7915 17.7087 3.63097 17.7087 4.6665C17.7087 5.70204 16.8692 6.5415 15.8337 6.5415H4.16699ZM15.8337 7.7915H4.16699C3.13146 7.7915 2.29199 8.63097 2.29199 9.6665C2.29199 10.702 3.13146 11.5415 4.16699 11.5415H15.8337C16.8692 11.5415 17.7087 10.702 17.7087 9.6665C17.7087 8.63097 16.8692 7.7915 15.8337 7.7915ZM10.2087 4.6665C10.2087 4.32133 10.4885 4.0415 10.8337 4.0415H15.8337C16.1788 4.0415 16.4587 4.32133 16.4587 4.6665C16.4587 5.01168 16.1788 5.2915 15.8337 5.2915H10.8337C10.4885 5.2915 10.2087 5.01168 10.2087 4.6665ZM10.2087 9.6665C10.2087 9.32133 10.4885 9.0415 10.8337 9.0415H15.8337C16.1788 9.0415 16.4587 9.32133 16.4587 9.6665C16.4587 10.0117 16.1788 10.2915 15.8337 10.2915H10.8337C10.4885 10.2915 10.2087 10.0117 10.2087 9.6665ZM10.0003 15.2915C9.42503 15.2915 8.95866 15.7579 8.95866 16.3332C8.95866 16.9085 9.42503 17.3748 10.0003 17.3748C10.5756 17.3748 11.042 16.9085 11.042 16.3332C11.042 15.7579 10.5756 15.2915 10.0003 15.2915Z" fill="currentColor"/>
    <path d="M5.83366 4.6665C5.83366 5.12674 5.46056 5.49984 5.00033 5.49984C4.54009 5.49984 4.16699 5.12674 4.16699 4.6665C4.16699 4.20627 4.54009 3.83317 5.00033 3.83317C5.46056 3.83317 5.83366 4.20627 5.83366 4.6665Z" fill="currentColor" />
    <path d="M5.83366 9.6665C5.83366 10.1267 5.46056 10.4998 5.00033 10.4998C4.54009 10.4998 4.16699 10.1267 4.16699 9.6665C4.16699 9.20627 4.54009 8.83317 5.00033 8.83317C5.46056 8.83317 5.83366 9.20627 5.83366 9.6665Z" fill="currentColor" />
</svg>
