<svg width="20" height="20" viewBox="0 0 20 20" fill="none" xmlns="http://www.w3.org/2000/svg">
    <path fill-rule="evenodd" clip-rule="evenodd" d="M6.33235 3.73888C6.5547 2.64732 7.52606 1.875 8.63894 1.875H11.3617C12.4746 1.875 13.4459 2.64732 13.6683 3.73888C13.7196 3.99087 13.9479 4.17571 14.1853 4.17571H14.199L14.2126 4.17631C15.3822 4.22745 16.2805 4.37097 17.0305 4.86298C17.503 5.17297 17.9094 5.57181 18.2262 6.0372C18.6202 6.61622 18.794 7.28079 18.8773 8.08454C18.9587 8.86983 18.9587 9.85417 18.9587 11.1009V11.1719C18.9587 12.4186 18.9587 13.4029 18.8773 14.1882C18.794 14.9919 18.6202 15.6565 18.2262 16.2355C17.9094 16.7009 17.503 17.0998 17.0305 17.4097C16.4442 17.7943 15.7722 17.9639 14.957 18.0453C14.1589 18.125 13.1578 18.125 11.8865 18.125H8.11413C6.84281 18.125 5.84171 18.125 5.04363 18.0453C4.22849 17.9639 3.55642 17.7943 2.9702 17.4097C2.49767 17.0998 2.0912 16.7009 1.77448 16.2355C1.38042 15.6565 1.20662 14.9919 1.12334 14.1882C1.04198 13.4029 1.04199 12.4186 1.04199 11.1718V11.1009C1.04199 9.85417 1.04198 8.86983 1.12334 8.08454C1.20662 7.28079 1.38042 6.61622 1.77448 6.0372C2.0912 5.57181 2.49767 5.17297 2.9702 4.86298C3.72018 4.37097 4.61849 4.22745 5.78802 4.17631L5.80166 4.17571H5.81532C6.05273 4.17571 6.28102 3.99087 6.33235 3.73888ZM8.63894 3.125C8.10468 3.125 7.65787 3.49416 7.55719 3.98839C7.39414 4.78883 6.68449 5.41822 5.8306 5.42565C4.70676 5.47558 4.10479 5.61363 3.65586 5.90815C3.31957 6.12876 3.03159 6.41175 2.80788 6.74047C2.57775 7.07862 2.43946 7.51104 2.36669 8.21337C2.29278 8.92672 2.29199 9.84633 2.29199 11.1364C2.29199 12.4264 2.29278 13.346 2.36669 14.0594C2.43946 14.7617 2.57775 15.1941 2.80788 15.5323C3.03159 15.861 3.31957 16.144 3.65586 16.3646C4.0038 16.5928 4.44903 16.7297 5.16786 16.8015C5.89656 16.8743 6.83527 16.875 8.14847 16.875H11.8522C13.1654 16.875 14.1041 16.8743 14.8328 16.8015C15.5516 16.7297 15.9969 16.5928 16.3448 16.3646C16.6811 16.144 16.9691 15.861 17.1928 15.5323C17.4229 15.1941 17.5612 14.7617 17.634 14.0594C17.7079 13.346 17.7087 12.4264 17.7087 11.1364C17.7087 9.84633 17.7079 8.92672 17.634 8.21337C17.5612 7.51104 17.4229 7.07862 17.1928 6.74047C16.9691 6.41175 16.6811 6.12876 16.3448 5.90815C15.8959 5.61363 15.2939 5.47558 14.17 5.42565C13.3162 5.41822 12.6065 4.78883 12.4435 3.98839C12.3428 3.49416 11.896 3.125 11.3617 3.125H8.63894ZM10.0003 8.95833C8.96479 8.95833 8.12533 9.7978 8.12533 10.8333C8.12533 11.8689 8.96479 12.7083 10.0003 12.7083C11.0359 12.7083 11.8753 11.8689 11.8753 10.8333C11.8753 9.7978 11.0359 8.95833 10.0003 8.95833ZM6.87533 10.8333C6.87533 9.10744 8.27444 7.70833 10.0003 7.70833C11.7262 7.70833 13.1253 9.10744 13.1253 10.8333C13.1253 12.5592 11.7262 13.9583 10.0003 13.9583C8.27444 13.9583 6.87533 12.5592 6.87533 10.8333ZM14.3753 8.33333C14.3753 7.98816 14.6551 7.70833 15.0003 7.70833H15.8337C16.1788 7.70833 16.4587 7.98816 16.4587 8.33333C16.4587 8.67851 16.1788 8.95833 15.8337 8.95833H15.0003C14.6551 8.95833 14.3753 8.67851 14.3753 8.33333Z" fill="currentColor" />
</svg>
