<svg width="20" height="20" viewBox="0 0 20 20" fill="none" xmlns="http://www.w3.org/2000/svg">
    <path d="M5.59331 8.89449C5.97204 6.79561 7.82051 5.20817 10.0358 5.20817C11.3503 5.20817 12.5353 5.76726 13.36 6.65875C13.5944 6.91214 13.579 7.30757 13.3256 7.54197C13.0722 7.77637 12.6768 7.76098 12.4424 7.50759C11.8455 6.86237 10.9892 6.45817 10.0358 6.45817C8.50401 6.45817 7.22413 7.5016 6.86978 8.90426L7.0668 8.71536C7.31596 8.47647 7.7116 8.4848 7.95049 8.73396C8.18938 8.98312 8.18105 9.37876 7.93189 9.61765L6.57986 10.9139C6.45712 11.0316 6.29172 11.0942 6.12181 11.0873C5.9519 11.0803 5.79216 11.0045 5.67942 10.8772L4.53145 9.58087C4.3026 9.32245 4.32657 8.92745 4.58499 8.6986C4.8434 8.46976 5.2384 8.49373 5.46725 8.75214L5.59331 8.89449Z" fill="currentColor" />
    <path d="M13.8731 8.91309C14.0429 8.91982 14.2027 8.99543 14.3156 9.12249L15.4666 10.4181C15.6958 10.6761 15.6725 11.0712 15.4145 11.3004C15.1564 11.5297 14.7614 11.5063 14.5321 11.2483L14.4027 11.1026C14.024 13.2046 12.1669 14.7922 9.94501 14.7922C8.63559 14.7922 7.45387 14.2411 6.62695 13.36C6.39073 13.1083 6.40328 12.7128 6.65498 12.4766C6.90667 12.2403 7.3022 12.2529 7.53842 12.5046C8.13723 13.1426 8.99265 13.5422 9.94501 13.5422C11.4842 13.5422 12.7677 12.4991 13.1246 11.0993L12.9323 11.2839C12.6833 11.523 12.2877 11.5151 12.0486 11.2661C11.8095 11.0171 11.8175 10.6215 12.0664 10.3824L13.4154 9.08682C13.538 8.96909 13.7032 8.90636 13.8731 8.91309Z" fill="currentColor" />
    <path fill-rule="evenodd" clip-rule="evenodd" d="M9.99935 1.0415C5.0518 1.0415 1.04102 5.05229 1.04102 9.99984C1.04102 14.9474 5.0518 18.9582 9.99935 18.9582C14.9469 18.9582 18.9577 14.9474 18.9577 9.99984C18.9577 5.05229 14.9469 1.0415 9.99935 1.0415ZM2.29102 9.99984C2.29102 5.74264 5.74215 2.2915 9.99935 2.2915C14.2565 2.2915 17.7077 5.74264 17.7077 9.99984C17.7077 14.257 14.2565 17.7082 9.99935 17.7082C5.74215 17.7082 2.29102 14.257 2.29102 9.99984Z" fill="currentColor" />
</svg>
