<svg width="1em" height="1em" viewBox="0 0 20 20" fill="none" xmlns="http://www.w3.org/2000/svg">
  <path fill-rule="evenodd" clip-rule="evenodd" d="M9.95251 1.0415L11.2503 1.0415C11.5955 1.0415 11.8753 1.32133 11.8753 1.6665C11.8753 2.01168 11.5955 2.2915 11.2503 2.2915H10.0003C8.01847 2.2915 6.59495 2.29283 5.51164 2.43848C4.4463 2.58171 3.80404 2.85412 3.32932 3.32883C2.85461 3.80355 2.5822 4.44582 2.43897 5.51115C2.29332 6.59447 2.29199 8.01798 2.29199 9.99984C2.29199 11.9817 2.29332 13.4052 2.43897 14.4885C2.5822 15.5539 2.85461 16.1961 3.32932 16.6708C3.80404 17.1456 4.4463 17.418 5.51164 17.5612C6.59495 17.7068 8.01847 17.7082 10.0003 17.7082C11.9822 17.7082 13.4057 17.7068 14.489 17.5612C15.5543 17.418 16.1966 17.1456 16.6713 16.6708C17.146 16.1961 17.4185 15.5539 17.5617 14.4885C17.7073 13.4052 17.7087 11.9817 17.7087 9.99984V8.74984C17.7087 8.40466 17.9885 8.12484 18.3337 8.12484C18.6788 8.12484 18.9587 8.40466 18.9587 8.74984V10.0476C18.9587 11.9713 18.9587 13.4788 18.8005 14.6551C18.6387 15.859 18.3009 16.809 17.5552 17.5547C16.8095 18.3004 15.8595 18.6382 14.6556 18.8C13.4793 18.9582 11.9718 18.9582 10.0481 18.9582H9.95252C8.02885 18.9582 6.52132 18.9582 5.34508 18.8C4.14113 18.6382 3.19111 18.3004 2.44544 17.5547C1.69976 16.809 1.36198 15.859 1.20011 14.6551C1.04197 13.4788 1.04198 11.9713 1.04199 10.0477V9.95202C1.04198 8.02836 1.04197 6.52083 1.20011 5.34459C1.36198 4.14065 1.69976 3.19063 2.44544 2.44495C3.19111 1.69928 4.14113 1.36149 5.34508 1.19963C6.52132 1.04148 8.02885 1.04149 9.95251 1.0415ZM13.9758 1.89643C15.1157 0.756528 16.9638 0.756528 18.1037 1.89643C19.2436 3.03634 19.2436 4.88449 18.1037 6.02439L12.5636 11.5645C12.2542 11.8739 12.0604 12.0678 11.8441 12.2365C11.5894 12.4352 11.3138 12.6055 11.0221 12.7445C10.7745 12.8625 10.5144 12.9492 10.0993 13.0875L7.67888 13.8943C7.232 14.0433 6.73933 13.927 6.40625 13.5939C6.07318 13.2608 5.95687 12.7682 6.10583 12.3213L6.91263 9.90086C7.05098 9.48572 7.13765 9.22566 7.25566 8.97805C7.39465 8.6864 7.565 8.41077 7.7637 8.15602C7.9324 7.93973 8.12624 7.74591 8.4357 7.4365L13.9758 1.89643ZM17.2198 2.78032C16.5681 2.12857 15.5114 2.12857 14.8597 2.78032L14.5458 3.09417C14.5647 3.17405 14.5912 3.26923 14.628 3.37539C14.7474 3.71961 14.9734 4.17293 15.4003 4.59983C15.8272 5.02673 16.2806 5.25272 16.6248 5.37215C16.7309 5.40898 16.8261 5.43544 16.906 5.45436L17.2198 5.14051C17.8716 4.48876 17.8716 3.43207 17.2198 2.78032ZM15.9213 6.43908C15.4913 6.25417 14.9905 5.95772 14.5164 5.48372C14.0424 5.00971 13.746 4.50886 13.5611 4.07888L9.34825 8.29172C9.00115 8.63881 8.86503 8.77647 8.74934 8.9248C8.60647 9.10795 8.48399 9.30613 8.38406 9.51582C8.30313 9.68564 8.24089 9.86895 8.08566 10.3346L7.72575 11.4144L8.5858 12.2744L9.66554 11.9145C10.1312 11.7593 10.3145 11.697 10.4843 11.6161C10.694 11.5162 10.8922 11.3937 11.0754 11.2508C11.2237 11.1351 11.3613 10.999 11.7084 10.6519L15.9213 6.43908Z" fill="#094B72"/>
  </svg>
  