<svg width="22" height="22" viewBox="0 0 22 22" fill="none" xmlns="http://www.w3.org/2000/svg">
  <path d="M14.4064 11.7857V14.4045H17.0244V17.0225H19.6431V19.6429H17.0244V17.0241H14.4064V19.6429H11.786V17.0241H14.4048V14.4053H11.786V11.7857H14.4064ZM8.25028 11.7857C8.77124 11.7857 9.27086 11.9927 9.63924 12.3611C10.0076 12.7295 10.2146 13.2291 10.2146 13.75V17.6786C10.2146 18.1996 10.0076 18.6992 9.63924 19.0676C9.27086 19.4359 8.77124 19.6429 8.25028 19.6429H4.32171C3.80075 19.6429 3.30112 19.4359 2.93275 19.0676C2.56437 18.6992 2.35742 18.1996 2.35742 17.6786V13.75C2.35742 13.2291 2.56437 12.7295 2.93275 12.3611C3.30112 11.9927 3.80075 11.7857 4.32171 11.7857H8.25028ZM8.25028 13.3572H4.32171C4.21752 13.3572 4.11759 13.3986 4.04392 13.4722C3.97024 13.5459 3.92885 13.6458 3.92885 13.75V17.6786C3.92885 17.7828 3.97024 17.8827 4.04392 17.9564C4.11759 18.0301 4.21752 18.0715 4.32171 18.0715H8.25028C8.35447 18.0715 8.4544 18.0301 8.52807 17.9564C8.60175 17.8827 8.64314 17.7828 8.64314 17.6786V13.75C8.64314 13.6458 8.60175 13.5459 8.52807 13.4722C8.4544 13.3986 8.35447 13.3572 8.25028 13.3572ZM7.66099 14.3393V17.0893H4.91099V14.3393H7.66099ZM19.6431 11.7857V14.4045H17.0244V11.7857H19.6431ZM8.25028 2.35718C8.77124 2.35718 9.27086 2.56413 9.63924 2.9325C10.0076 3.30088 10.2146 3.8005 10.2146 4.32146V8.25004C10.2146 8.771 10.0076 9.27062 9.63924 9.639C9.27086 10.0074 8.77124 10.2143 8.25028 10.2143H4.32171C3.80075 10.2143 3.30112 10.0074 2.93275 9.639C2.56437 9.27062 2.35742 8.771 2.35742 8.25004V4.32146C2.35742 3.8005 2.56437 3.30088 2.93275 2.9325C3.30112 2.56413 3.80075 2.35718 4.32171 2.35718H8.25028ZM17.6789 2.35718C18.1998 2.35718 18.6994 2.56413 19.0678 2.9325C19.4362 3.30088 19.6431 3.8005 19.6431 4.32146V8.25004C19.6431 8.771 19.4362 9.27062 19.0678 9.639C18.6994 10.0074 18.1998 10.2143 17.6789 10.2143H13.7503C13.2293 10.2143 12.7297 10.0074 12.3613 9.639C11.9929 9.27062 11.786 8.771 11.786 8.25004V4.32146C11.786 3.8005 11.9929 3.30088 12.3613 2.9325C12.7297 2.56413 13.2293 2.35718 13.7503 2.35718H17.6789ZM8.25028 3.92861H4.32171C4.21752 3.92861 4.11759 3.97 4.04392 4.04367C3.97024 4.11735 3.92885 4.21727 3.92885 4.32146V8.25004C3.92885 8.35423 3.97024 8.45415 4.04392 8.52783C4.11759 8.6015 4.21752 8.64289 4.32171 8.64289H8.25028C8.35447 8.64289 8.4544 8.6015 8.52807 8.52783C8.60175 8.45415 8.64314 8.35423 8.64314 8.25004V4.32146C8.64314 4.21727 8.60175 4.11735 8.52807 4.04367C8.4544 3.97 8.35447 3.92861 8.25028 3.92861ZM17.6789 3.92861H13.7503C13.6461 3.92861 13.5462 3.97 13.4725 4.04367C13.3988 4.11735 13.3574 4.21727 13.3574 4.32146V8.25004C13.3574 8.35423 13.3988 8.45415 13.4725 8.52783C13.5462 8.6015 13.6461 8.64289 13.7503 8.64289H17.6789C17.783 8.64289 17.883 8.6015 17.9566 8.52783C18.0303 8.45415 18.0717 8.35423 18.0717 8.25004V4.32146C18.0717 4.21727 18.0303 4.11735 17.9566 4.04367C17.883 3.97 17.783 3.92861 17.6789 3.92861ZM17.0896 4.91075V7.66075H14.3396V4.91075H17.0896ZM7.65864 4.91232V7.65839H4.91335V4.91232H7.65864Z" fill="black"/>
  </svg>
  