<svg width="20" height="20" viewBox="0 0 20 20" fill="none" xmlns="http://www.w3.org/2000/svg">
    <path fill-rule="evenodd" clip-rule="evenodd" d="M10.0003 1.0415C10.1828 1.0415 10.3561 1.12123 10.4749 1.25976L12.9749 4.17643C13.1995 4.4385 13.1691 4.83307 12.9071 5.05771C12.645 5.28235 12.2504 5.25199 12.0258 4.98992L10.6253 3.35604L10.6253 12.4998C10.6253 12.845 10.3455 13.1248 10.0003 13.1248C9.65515 13.1248 9.37533 12.845 9.37533 12.4998L9.37533 3.35604L7.97486 4.98992C7.75022 5.25199 7.35566 5.28235 7.09358 5.05771C6.8315 4.83307 6.80115 4.4385 7.02579 4.17643L9.52579 1.25976C9.64453 1.12123 9.81787 1.0415 10.0003 1.0415ZM5.83018 6.87647C6.17535 6.87455 6.45673 7.15281 6.45865 7.49799C6.46057 7.84316 6.18231 8.12453 5.83714 8.12645C4.92589 8.13153 4.27999 8.15519 3.78978 8.24524C3.31744 8.332 3.04405 8.47131 2.84117 8.67419C2.61053 8.90483 2.46016 9.22864 2.37795 9.84012C2.29332 10.4696 2.29199 11.3038 2.29199 12.5V13.3333C2.29199 14.5295 2.29332 15.3638 2.37795 15.9932C2.46016 16.6047 2.61053 16.9285 2.84117 17.1592C3.0718 17.3898 3.39561 17.5402 4.00709 17.6224C4.63655 17.707 5.47081 17.7083 6.66699 17.7083H13.3337C14.5298 17.7083 15.3641 17.707 15.9936 17.6224C16.605 17.5402 16.9289 17.3898 17.1595 17.1592C17.3901 16.9285 17.5405 16.6047 17.6227 15.9932C17.7073 15.3638 17.7087 14.5295 17.7087 13.3334V12.5C17.7087 11.3038 17.7073 10.4696 17.6227 9.84012C17.5405 9.22864 17.3901 8.90483 17.1595 8.67419C16.9566 8.47131 16.6832 8.332 16.2109 8.24524C15.7207 8.15519 15.0748 8.13153 14.1635 8.12645C13.8183 8.12453 13.5401 7.84316 13.542 7.49799C13.5439 7.15281 13.8253 6.87455 14.1705 6.87647C15.0717 6.88149 15.8229 6.90306 16.4367 7.0158C17.0684 7.13183 17.6059 7.35287 18.0434 7.79031C18.545 8.2919 18.7607 8.92347 18.8616 9.67356C18.9587 10.396 18.9587 11.3146 18.9587 12.4543V13.3791C18.9587 14.5187 18.9587 15.4373 18.8616 16.1598C18.7607 16.9099 18.545 17.5415 18.0434 18.0431C17.5418 18.5447 16.9102 18.7604 16.1601 18.8612C15.4376 18.9584 14.519 18.9584 13.3794 18.9583H6.62127C5.48161 18.9584 4.56301 18.9584 3.84053 18.8612C3.09044 18.7604 2.45888 18.5447 1.95728 18.0431C1.45569 17.5415 1.23994 16.9099 1.1391 16.1598C1.04196 15.4373 1.04198 14.5187 1.04199 13.3791V12.4543C1.04198 11.3146 1.04196 10.396 1.1391 9.67356C1.23994 8.92347 1.45569 8.2919 1.95728 7.79031C2.39473 7.35287 2.93229 7.13183 3.56395 7.0158C4.17775 6.90306 4.92891 6.88149 5.83018 6.87647Z" fill="currentColor"/>
</svg>
