<svg width="54" height="54" viewBox="0 0 54 54" fill="none" xmlns="http://www.w3.org/2000/svg">
    <path fill-rule="evenodd" clip-rule="evenodd" d="M25.8068 34.8068C26.4658 34.1477 27.5342 34.1477 28.1932 34.8068L32.6932 39.3068C33.3523 39.9658 33.3523 41.0342 32.6932 41.6932C32.0342 42.3523 30.9658 42.3523 30.3068 41.6932L28.6875 40.074V49.5C28.6875 50.432 27.932 51.1875 27 51.1875C26.068 51.1875 25.3125 50.432 25.3125 49.5V40.074L23.6932 41.6932C23.0342 42.3523 21.9658 42.3523 21.3068 41.6932C20.6477 41.0342 20.6477 39.9658 21.3068 39.3068L25.8068 34.8068Z" fill="currentColor" />
    <path d="M28.0714 8.4375C21.8837 8.4375 16.9018 13.3894 16.9018 19.4559C16.9018 20.4957 17.0473 21.4999 17.3189 22.4508C18.4376 22.7737 19.4848 23.2625 20.431 23.8884C21.2083 24.4026 21.4216 25.4496 20.9074 26.2269C20.3932 27.0042 19.3463 27.2175 18.569 26.7033C17.7122 26.1365 16.7381 25.7299 15.6899 25.5265C15.1908 25.4297 14.6737 25.3787 14.1429 25.3787C9.73035 25.3787 6.1875 28.9084 6.1875 33.2206C6.1875 37.5328 9.73035 41.0625 14.1429 41.0625C15.0748 41.0625 15.8304 41.818 15.8304 42.75C15.8304 43.682 15.0748 44.4375 14.1429 44.4375C7.90416 44.4375 2.8125 39.4343 2.8125 33.2206C2.8125 27.136 7.69472 22.2122 13.7554 22.0101C13.6051 21.1805 13.5268 20.3268 13.5268 19.4559C13.5268 11.4879 20.0575 5.0625 28.0714 5.0625C35.1771 5.0625 41.1129 10.1108 42.3707 16.8104C47.5455 19.0069 51.1875 24.0959 51.1875 30.0441C51.1875 36.9606 46.2652 42.7147 39.7279 44.1127C38.8165 44.3076 37.9197 43.7268 37.7248 42.8154C37.5299 41.9041 38.1107 41.0072 39.0221 40.8123C44.0615 39.7347 47.8125 35.3092 47.8125 30.0441C47.8125 25.2365 44.6866 21.1295 40.3029 19.6304C39.1586 19.2391 37.9279 19.0257 36.6429 19.0257C35.332 19.0257 34.0775 19.2478 32.9136 19.6543C32.0338 19.9617 31.0714 19.4975 30.764 18.6177C30.4567 17.7378 30.9208 16.7754 31.8007 16.4681C33.3178 15.9382 34.9483 15.6507 36.6429 15.6507C37.3077 15.6507 37.9626 15.695 38.6047 15.7808C37.0733 11.5117 32.9449 8.4375 28.0714 8.4375Z" fill="currentColor" />
</svg>
